<mxfile host="app.diagrams.net" modified="2023-12-30T14:47:31.230Z" agent="Mozilla/5.0 (Macintosh; Intel Mac OS X 10_15_7) AppleWebKit/605.1.15 (KHTML, like Gecko) Version/17.2.1 Safari/605.1.15" version="22.1.16" etag="X8qr8FMS_sXLh1RZH9I5" type="github">
  <diagram name="第 1 页" id="DgGgNwavMMRg_fy5vbdQ">
    <mxGraphModel>
      <root>
        <mxCell id="0" />
        <mxCell id="1" parent="0" />
      </root>
    </mxGraphModel>
  </diagram>
</mxfile>
